<?xml version="1.0" encoding="utf-8"?>
<!-- Generator: Adobe Illustrator 16.0.0, SVG Export Plug-In . SVG Version: 6.00 Build 0)  -->
<!DOCTYPE svg PUBLIC "-//W3C//DTD SVG 1.1//EN" "http://www.w3.org/Graphics/SVG/1.1/DTD/svg11.dtd">
<svg version="1.1" id="Layer_1" xmlns="http://www.w3.org/2000/svg" xmlns:xlink="http://www.w3.org/1999/xlink" x="0px" y="0px"
	 width="289px" height="61px" viewBox="0 0 289 61" enable-background="new 0 0 289 61" xml:space="preserve">
<path fill="#FFFFFF" stroke="#000000" stroke-width="4" stroke-linecap="round" stroke-linejoin="round" stroke-miterlimit="10" d="
	M4.946,34.646"/>
<path fill="#FFFFFF" stroke="#000000" stroke-width="4" stroke-linecap="round" stroke-linejoin="round" stroke-miterlimit="10" d="
	M6.535,33.055"/>
<polygon points="15.954,52.834 2.434,29.415 15.954,5.996 42.995,5.996 56.516,29.415 42.995,52.834 "/>
<polyline fill="none" stroke="#FFFFFF" stroke-width="4" stroke-miterlimit="10" points="23.155,18.087 15.789,8.333 4.282,28.401 
	29.343,28.26 15.704,52.771 "/>
<polyline fill="none" stroke="#FFFFFF" stroke-width="4" stroke-miterlimit="10" points="43.997,5.666 29.349,28.312 43.912,53.75 
	"/>
<g>
	<path d="M68.378,18.25c3.471,0,5.253,2.075,5.253,5.708v0.714h-3.373V23.73c0-1.622-0.648-2.238-1.784-2.238
		c-1.135,0-1.783,0.616-1.783,2.238c0,4.67,6.972,5.546,6.972,12.03c0,3.633-1.816,5.708-5.319,5.708
		c-3.502,0-5.318-2.075-5.318-5.708v-1.395H66.4v1.625c0,1.619,0.714,2.203,1.85,2.203c1.134,0,1.847-0.584,1.847-2.203
		c0-4.67-6.973-5.547-6.973-12.033C63.124,20.326,64.908,18.25,68.378,18.25z"/>
	<path d="M75.414,23.958c0-3.632,1.914-5.708,5.417-5.708c3.502,0,5.416,2.076,5.416,5.708v11.803c0,3.632-1.913,5.708-5.416,5.708
		c-3.502,0-5.417-2.076-5.417-5.708V23.958z M78.981,35.991c0,1.62,0.713,2.235,1.849,2.235c1.135,0,1.848-0.615,1.848-2.235v-12.26
		c0-1.622-0.714-2.238-1.848-2.238c-1.134,0-1.849,0.616-1.849,2.238V35.991z"/>
	<path d="M92.115,28.595h4.606v3.243h-4.606v9.373h-3.566V18.509h9.436v3.243h-5.869L92.115,28.595L92.115,28.595z"/>
	<path d="M98.665,18.509h11.027v3.243h-3.73v19.459h-3.566V21.752h-3.73L98.665,18.509L98.665,18.509z"/>
	<path d="M119.161,29.115l-1.296,12.096h-4.896L110.44,18.51h3.47l1.913,17.901l1.718-17.901h3.438l1.785,18.032l1.847-18.032h3.115
		l-2.531,22.701h-4.734L119.161,29.115z"/>
	<path d="M140.564,41.211h-3.599l-0.617-4.118h-4.377l-0.615,4.118h-3.276l3.631-22.701h5.22L140.564,41.211z M132.426,34.011h3.437
		l-1.718-11.479L132.426,34.011z"/>
	<path d="M149.677,41.211c-0.194-0.584-0.323-0.939-0.323-2.788v-3.567c0-2.109-0.717-2.886-2.334-2.886h-1.231v9.242h-3.569V18.51
		h5.385c3.697,0,5.285,1.719,5.285,5.222v1.783c0,2.336-0.748,3.86-2.332,4.606c1.782,0.745,2.366,2.464,2.366,4.833v3.502
		c0,1.103,0.032,1.912,0.39,2.756L149.677,41.211L149.677,41.211z M145.786,21.752v6.972h1.394c1.327,0,2.139-0.583,2.139-2.399
		v-2.237c0-1.622-0.551-2.335-1.814-2.335L145.786,21.752L145.786,21.752z"/>
	<path d="M158.82,28.077h4.896v3.243h-4.896v6.647h6.162v3.243h-9.729v-22.7h9.729v3.243h-6.16L158.82,28.077L158.82,28.077z"/>
	<path d="M176.391,19.131c0.277,0,0.416,0.039,0.416,0.12l-0.645,3.305c-0.271,0.125-0.52,0.191-0.748,0.191h-0.311
		c-0.176,0-0.312-0.639-0.418-1.914c-1.308,0.246-2.338,0.53-3.09,0.856c-1.181,0.626-1.971,1.42-2.367,2.379
		c-0.508,1.03-0.76,2.599-0.76,4.708v1.582c0,3.164,0.114,4.973,0.344,5.434c0.387,1.228,1.015,2.08,1.879,2.558
		c0.727,0.401,1.574,0.606,2.531,0.606c0.904,0,2.069-0.228,3.498-0.679c0.252,0.523,0.379,0.91,0.379,1.166v0.154
		c0,0.371-0.39,0.646-1.164,0.821c-1.343,0.53-2.609,0.796-3.809,0.796c-3.083,0-4.941-2.109-5.575-6.326
		c-0.127-1.095-0.192-2.164-0.192-3.212c0-2.171,0.25-4.997,0.75-8.475c0.082-0.53,0.521-1.221,1.322-2.069
		C170.034,19.796,172.688,19.131,176.391,19.131z"/>
	<path d="M178.436,19.285h0.369c0.334,0,0.562,0.025,0.688,0.072l0.332-0.036c2.074,0,4.08,0.48,6.004,1.439
		c1.508,0.96,2.26,2.152,2.26,3.579v0.382c0,2.092-1.268,3.729-3.806,4.91l-0.413,0.143c2.512,5.889,3.768,9.262,3.768,10.119v0.106
		c-0.125,0.636-0.544,0.952-1.248,0.952h-0.105c-0.104-0.057-0.51-0.911-1.213-2.568l-3.662-7.966l-1.012,0.119l0.071,10.453
		c0,0.146-0.175,0.225-0.522,0.225h-0.156c-0.632,0-1.211-0.088-1.734-0.263l0.034-0.227l0.085-21.248
		C178.204,19.349,178.292,19.285,178.436,19.285z M180.279,21.734l0.082,7.219c0.451,0,1.48-0.392,3.091-1.178
		c1.308-0.872,1.963-1.814,1.963-2.83v-0.262c0-1.498-1.489-2.468-4.459-2.914L180.279,21.734z"/>
	<path d="M190.122,19.227c0.388,0,0.903,0.076,1.546,0.226l0.035,5.517v15.376c0,0.58-0.126,0.866-0.38,0.866h-0.298
		c-0.618,0-1.117-0.11-1.498-0.335V19.453C189.6,19.301,189.796,19.227,190.122,19.227z"/>
	<path d="M198.743,19.153c2.679,0,4.337,0.615,4.979,1.844c0.522,0.745,0.92,2.037,1.189,3.876c0.389,2.767,0.582,5.03,0.582,6.788
		v0.606c0,4.305-1.291,7.131-3.875,8.479c-0.749,0.307-1.45,0.463-2.107,0.463h-0.236c-1.983,0-3.594-1.7-4.825-5.102
		c-0.872-2.965-1.31-5.843-1.31-8.632c0-4.343,1.395-7.043,4.188-8.098C197.961,19.23,198.434,19.153,198.743,19.153z
		 M195.295,26.668c0,2.823,0.484,5.805,1.453,8.941c0.693,1.84,1.693,2.759,2.997,2.759c1.315-0.144,2.044-0.374,2.188-0.69
		c0.381-0.262,0.713-0.873,1-1.842c0.299-1.006,0.45-2.413,0.45-4.221v-0.069c0-3.775-0.356-6.601-1.069-8.479
		c-0.66-1.174-1.516-1.76-2.567-1.76h-0.121c-1.056,0.095-2.117,0.567-3.187,1.414c-0.492,0.397-0.834,1.087-1.035,2.069
		C195.33,25.537,195.295,26.161,195.295,26.668z"/>
	<path d="M207.504,19.094c0.596,0.049,1.107,0.151,1.535,0.309l-0.118,19.75c3.819-0.309,6.494-0.504,8.024-0.582
		c0.095,0,0.171,0.357,0.229,1.07c-0.02,0.791-0.07,1.188-0.156,1.188l-10.049,0.38l-0.035-0.036V19.543
		C206.936,19.246,207.124,19.094,207.504,19.094z"/>
	<path d="M218.693,19.094c0.596,0.049,1.105,0.151,1.533,0.309l-0.117,19.75c3.82-0.309,6.494-0.504,8.025-0.582
		c0.094,0,0.17,0.357,0.225,1.07c-0.016,0.791-0.066,1.188-0.153,1.188l-10.049,0.38l-0.033-0.036V19.543
		C218.125,19.246,218.312,19.094,218.693,19.094z"/>
	<path d="M233.449,19.153c2.68,0,4.342,0.615,4.984,1.844c0.522,0.745,0.916,2.037,1.188,3.876c0.389,2.767,0.583,5.03,0.583,6.788
		v0.606c0,4.305-1.293,7.131-3.878,8.479c-0.745,0.307-1.445,0.463-2.104,0.463h-0.238c-1.981,0-3.592-1.7-4.826-5.102
		c-0.87-2.965-1.309-5.843-1.309-8.632c0-4.343,1.395-7.043,4.188-8.098C232.672,19.23,233.143,19.153,233.449,19.153z
		 M230.004,26.668c0,2.823,0.482,5.805,1.45,8.941c0.696,1.84,1.696,2.759,2.997,2.759c1.314-0.144,2.047-0.374,2.188-0.69
		c0.383-0.262,0.715-0.873,1-1.842c0.301-1.006,0.451-2.413,0.451-4.221v-0.069c0-3.775-0.357-6.601-1.07-8.479
		c-0.658-1.174-1.517-1.76-2.568-1.76h-0.119c-1.055,0.095-2.118,0.567-3.188,1.414c-0.487,0.397-0.834,1.087-1.033,2.069
		C230.038,25.537,230.004,26.161,230.004,26.668z"/>
</g>
<g>
	<path d="M245.143,38.199v3.277h-3.277v-3.277H245.143z"/>
	<path d="M257.167,33.408v2.875c0,3.462-1.731,5.439-5.069,5.439c-3.34,0-5.07-1.979-5.07-5.439V25.03
		c0-3.462,1.73-5.441,5.07-5.441c3.338,0,5.069,1.979,5.069,5.441v2.102h-3.216v-2.318c0-1.546-0.68-2.133-1.762-2.133
		s-1.763,0.587-1.763,2.133v11.685c0,1.546,0.681,2.103,1.763,2.103s1.762-0.557,1.762-2.103v-3.091H257.167z"/>
	<path d="M258.959,25.03c0-3.462,1.824-5.441,5.163-5.441s5.163,1.979,5.163,5.441v11.253c0,3.462-1.824,5.439-5.163,5.439
		s-5.163-1.979-5.163-5.439V25.03z M262.359,36.499c0,1.546,0.681,2.134,1.763,2.134s1.762-0.588,1.762-2.134V24.814
		c0-1.546-0.68-2.133-1.762-2.133s-1.763,0.587-1.763,2.133V36.499z"/>
	<path d="M278.682,35.201L281,19.836h4.73v21.641h-3.215V25.958l-2.351,15.519h-3.216l-2.534-15.303v15.303h-2.968v-21.64h4.729
		L278.682,35.201z"/>
</g>
<polygon fill="#FFFFFF" points="24.751,16.933 22.472,20.415 19.495,16.543 22.319,14.16 "/>
</svg>
